HIERARCHY
ROOT Hips
{
	OFFSET 0.00000 0.00000 0.00000
	CHANNELS 6 Xposition Yposition Zposition Zrotation Yrotation Xrotation 
	JOINT LHipJoint
	{
		OFFSET 0 0 0
		CHANNELS 3 Zrotation Yrotation Xrotation
		JOINT LeftUpLeg
		{
			OFFSET 1.80322 -1.53100 0.99595
			CHANNELS 3 Zrotation Yrotation Xrotation
			JOINT LeftLeg
			{
				OFFSET 2.25177 -6.18669 0.00000
				CHANNELS 3 Zrotation Yrotation Xrotation
				JOINT LeftFoot
				{
					OFFSET 2.26601 -6.22582 0.00000
					CHANNELS 3 Zrotation Yrotation Xrotation
					JOINT LeftToeBase
					{
						OFFSET 0.23701 -0.65119 2.15848
						CHANNELS 3 Zrotation Yrotation Xrotation
						End Site
						{
							OFFSET 0.00000 -0.00000 1.12949
						}
					}
				}
			}
		}
	}
	JOINT RHipJoint
	{
		OFFSET 0 0 0
		CHANNELS 3 Zrotation Yrotation Xrotation
		JOINT RightUpLeg
		{
			OFFSET -1.93977 -1.53100 0.99595
			CHANNELS 3 Zrotation Yrotation Xrotation
			JOINT RightLeg
			{
				OFFSET -2.28036 -6.26523 0.00000
				CHANNELS 3 Zrotation Yrotation Xrotation
				JOINT RightFoot
				{
					OFFSET -2.25490 -6.19528 0.00000
					CHANNELS 3 Zrotation Yrotation Xrotation
					JOINT RightToeBase
					{
						OFFSET -0.28375 -0.77960 2.23137
						CHANNELS 3 Zrotation Yrotation Xrotation
						End Site
						{
							OFFSET -0.00000 -0.00000 1.17899
						}
					}
				}
			}
		}
	}
	JOINT LowerBack
	{
		OFFSET 0 0 0
		CHANNELS 3 Zrotation Yrotation Xrotation
		JOINT Spine
		{
			OFFSET -0.00088 2.12090 -0.02806
			CHANNELS 3 Zrotation Yrotation Xrotation
			JOINT Spine1
			{
				OFFSET -0.00286 2.09666 0.12974
				CHANNELS 3 Zrotation Yrotation Xrotation
				JOINT Neck
				{
					OFFSET 0 0 0
					CHANNELS 3 Zrotation Yrotation Xrotation
					JOINT Neck1
					{
						OFFSET 0.07328 1.83526 0.07290
						CHANNELS 3 Zrotation Yrotation Xrotation
						JOINT Head
						{
							OFFSET -0.06683 1.74974 -0.49542
							CHANNELS 3 Zrotation Yrotation Xrotation
							End Site
							{
								OFFSET -0.03398 1.85163 -0.17573
							}
						}
					}
				}
				JOINT LeftShoulder
				{
					OFFSET 0 0 0
					CHANNELS 3 Zrotation Yrotation Xrotation
					JOINT LeftArm
					{
						OFFSET 3.02113 1.18018 0.40602
						CHANNELS 3 Zrotation Yrotation Xrotation
						JOINT LeftForeArm
						{
							OFFSET 4.58538 -0.00000 -0.00000
							CHANNELS 3 Zrotation Yrotation Xrotation
							JOINT LeftHand
							{
								OFFSET 2.68935 -0.00000 -0.00000
								CHANNELS 3 Zrotation Yrotation Xrotation
								JOINT LeftFingerBase
								{
									OFFSET 0 0 0
									CHANNELS 3 Zrotation Yrotation Xrotation
									JOINT LeftHandIndex1
									{
										OFFSET 0.58506 -0.00000 -0.00000
										CHANNELS 3 Zrotation Yrotation Xrotation
										End Site
										{
											OFFSET 0.47169 -0.00000 -0.00000
										}
									}
								}
								JOINT LThumb
								{
									OFFSET 0 0 0
									CHANNELS 3 Zrotation Yrotation Xrotation
									End Site
									{
										OFFSET 0.47889 -0.00000 0.47889
									}
								}
							}
						}
					}
				}
				JOINT RightShoulder
				{
					OFFSET 0 0 0
					CHANNELS 3 Zrotation Yrotation Xrotation
					JOINT RightArm
					{
						OFFSET -2.95074 1.18843 0.31430
						CHANNELS 3 Zrotation Yrotation Xrotation
						JOINT RightForeArm
						{
							OFFSET -4.47450 -0.00000 -0.00000
							CHANNELS 3 Zrotation Yrotation Xrotation
							JOINT RightHand
							{
								OFFSET -2.93896 -0.00000 -0.00000
								CHANNELS 3 Zrotation Yrotation Xrotation
								JOINT RightFingerBase
								{
									OFFSET 0 0 0
									CHANNELS 3 Zrotation Yrotation Xrotation
									JOINT RightHandIndex1
									{
										OFFSET -0.40509 -0.00000 -0.00000
										CHANNELS 3 Zrotation Yrotation Xrotation
										End Site
										{
											OFFSET -0.32660 -0.00000 -0.00000
										}
									}
								}
								JOINT RThumb
								{
									OFFSET 0 0 0
									CHANNELS 3 Zrotation Yrotation Xrotation
									End Site
									{
										OFFSET -0.33158 -0.00000 0.33158
									}
								}
							}
						}
					}
				}
			}
		}
	}
}
MOTION
Frames: 13
Frame Time: 0.0289855
0.00 0.00 0.00 2.1494 7.8293 18.4264 0.0000 0.0000 0.0000 0.7840 -22.5096 -77.8599 14.1654 19.1634 72.7088 0.5728 -7.7027 -13.7182 0.3794 -3.9561 -10.9531 0.0000 0.0000 0.0000 -5.3342 -25.4596 -34.9604 -16.9245 -19.7717 80.9749 -3.2051 7.2685 -32.5296 -3.5068 11.4734 -33.8937 -2.7883 3.7765 14.7253 -1.0276 4.4166 -2.1031 -0.5946 2.2287 -10.7085 3.8030 -4.3861 -12.9444 4.9611 -7.6955 16.9431 0.2180 -2.9502 7.4229 -0.0000 0.0000 0.0000 -96.5707 -50.3425 77.5705 153.6352 -37.5667 -110.8909 -0.0000 0.0000 -14.3561 23.5350 9.0115 3.9026 -7.1250 0.0000 -0.0000 -2.9657 39.7768 0.3822 -0.0000 0.0000 0.0000 60.5944 57.7981 22.0577 -97.1228 59.8074 -66.1645 0.0000 -0.0000 -26.4197 -14.1322 -21.3714 5.2423 7.1250 -0.0000 -0.0000 14.7094 -51.3645 -2.3488
0.00 0.00 0.00 2.5318 8.1119 18.3336 0.0000 0.0000 0.0000 0.5119 -22.7340 -78.0503 14.1503 19.1590 72.6629 0.5029 -7.5680 -12.9108 0.3162 -3.6147 -9.9952 0.0000 0.0000 0.0000 -5.9925 -25.2978 -35.2638 -17.3592 -19.8320 82.2580 -3.1842 7.4101 -32.4037 -3.4850 11.4415 -33.7839 -2.1895 4.5606 15.0773 -1.3827 5.5253 -1.9137 -1.5964 2.7044 -10.6258 2.9854 -5.4232 -13.1154 5.6719 -9.0590 16.5778 0.4367 -3.5941 7.4152 -0.0000 0.0000 0.0000 -96.1277 -50.9030 77.9785 153.4326 -37.7636 -110.7670 -0.0000 0.0000 -14.1313 23.3560 9.0582 3.8893 -7.1250 0.0000 -0.0000 -3.1267 39.8125 0.4003 -0.0000 0.0000 0.0000 52.3852 63.6870 13.1811 -67.7539 58.0449 -40.8608 0.0000 -0.0000 -23.2505 -19.8707 -21.5144 7.5502 7.1250 -0.0000 -0.0000 9.1282 -52.4933 -1.6949
0.00 0.00 0.00 3.0663 8.5797 18.0470 0.0000 0.0000 0.0000 -0.1418 -22.7279 -78.3142 14.0960 19.1429 72.4976 0.3487 -7.5321 -11.0130 0.1933 -2.8310 -7.8087 0.0000 0.0000 0.0000 -6.8023 -25.1648 -35.3685 -17.9059 -19.8945 83.8669 -3.2683 7.4661 -32.8466 -3.5526 11.5400 -34.1234 -1.1218 5.4215 15.8876 -1.9602 6.7930 -1.6712 -3.1790 3.2197 -10.6183 2.2039 -6.6469 -13.5480 6.7120 -10.8034 16.7365 0.6904 -4.3495 7.6779 0.0000 0.0000 0.0000 -95.8371 -51.6793 79.0007 152.9341 -38.2420 -110.4601 -0.0000 0.0000 -13.1707 23.0725 8.6845 3.6801 -7.1250 0.0000 -0.0000 -3.3326 39.3855 0.4617 0.0000 0.0000 0.0000 26.7046 73.1453 -16.5384 -26.5615 37.7578 -9.2294 0.0000 -0.0000 -11.8934 -21.2120 -22.1623 8.3295 7.1250 -0.0000 -0.0000 8.0106 -53.4050 -1.6643
0.00 0.00 0.00 4.9495 2.2547 16.9555 0.0000 0.0000 0.0000 -3.1371 -20.2757 -77.2343 14.5085 19.2611 73.7515 0.3997 -4.3134 -11.2461 0.0880 -1.9132 -5.2658 0.0000 0.0000 0.0000 -11.9707 -21.1928 -36.5009 -18.1121 -19.9143 84.4725 -3.5517 9.7607 -34.1568 -4.1572 12.3667 -37.0420 -0.1050 4.0948 18.2448 -0.0635 5.4002 -1.0311 -1.5028 2.5351 -11.3940 5.4675 -4.6649 -11.9385 2.7054 -7.5152 9.9132 -0.5972 -3.2796 4.8451 0.0000 0.0000 0.0000 -98.1133 -52.5427 79.6625 152.4922 -38.6591 -110.1853 -0.0000 0.0000 -12.5030 23.3177 9.5095 4.0733 -7.1250 0.0000 -0.0000 -3.2108 40.2974 0.3727 0.0000 0.0000 0.0000 -5.9575 75.0889 -52.7913 -23.3360 34.4542 -7.3275 0.0000 -0.0000 -31.1194 -20.4166 -22.5684 8.1300 7.1250 -0.0000 -0.0000 8.9707 -53.6733 -1.9252
0.00 0.00 0.00 -1.1338 -14.9981 19.8631 0.0000 0.0000 0.0000 3.4188 -9.8502 -76.7307 16.1373 19.6385 78.6406 0.9658 1.4400 -19.1390 0.1733 -2.6813 -7.3927 0.0000 0.0000 0.0000 -7.2544 -11.1310 -43.8043 -15.8014 -19.5720 77.6394 -3.3847 13.5337 -33.3357 -4.3169 12.5706 -37.7816 -5.3191 -0.6093 17.5591 1.3644 -1.7794 -0.8642 5.0006 -0.4954 -10.6449 15.4596 5.9708 -10.3875 -2.3995 5.7902 14.7353 -2.7205 3.4338 6.7861 0.0000 -0.0000 0.0000 -94.7073 -56.3349 72.7355 153.9151 -37.2924 -111.0610 -0.0000 0.0000 -15.5515 24.2723 9.8200 4.3979 -7.1250 0.0000 -0.0000 -2.4064 40.7192 0.2542 0.0000 -0.0000 0.0000 68.3197 44.5703 30.6662 -150.3151 40.6218 -108.7961 0.0000 -0.0000 -52.7071 -6.2233 -12.8254 1.3866 7.1250 -0.0000 -0.0000 18.7986 -42.0868 1.4059
0.00 0.00 0.00 2.5496 -2.7969 17.8993 0.0000 0.0000 0.0000 -0.3540 -14.6926 -81.1066 17.1589 19.8054 81.6671 0.7583 -5.5323 -15.5169 0.1154 -2.1904 -6.0323 0.0000 0.0000 0.0000 -12.2206 -19.1942 -39.1241 -18.9437 -19.9732 86.9103 -3.5719 15.1539 -34.3679 -5.0183 13.4044 -40.9016 -3.6625 -1.3061 17.1689 1.9586 -2.2718 -0.5374 4.8027 -0.8287 -10.0289 8.2949 0.2789 -12.4089 0.4701 -1.3016 14.1987 -1.3173 -0.1475 6.3349 -0.0000 0.0000 0.0000 -102.2587 -52.2635 80.1013 152.7830 -38.3853 -110.3665 -0.0000 0.0000 -14.6910 24.5725 9.5749 4.3495 -7.1250 0.0000 -0.0000 -2.1161 40.4790 0.2360 -0.0000 0.0000 0.0000 52.1040 48.6514 7.9979 -137.2002 49.6439 -99.4519 0.0000 -0.0000 -40.8975 -10.9308 -18.8967 3.5790 7.1250 -0.0000 -0.0000 16.7301 -48.4638 -1.4675
0.00 0.00 0.00 3.5659 1.0843 17.3454 0.0000 0.0000 0.0000 -1.5016 -16.6409 -81.3708 16.9526 19.7759 81.0579 0.6042 -6.7990 -13.9397 0.0966 -2.0047 -5.5187 0.0000 0.0000 0.0000 -13.3334 -21.1789 -37.3144 -19.5811 -19.9958 88.7750 -3.4822 15.2697 -33.9410 -4.9289 13.3033 -40.5146 -2.4908 -0.3057 17.5859 2.2187 -0.6854 -0.5866 4.0335 -0.1146 -10.4971 5.7112 -2.2215 -11.8375 1.2001 -4.2227 13.3223 -0.9034 -1.6632 5.9009 -0.0000 0.0000 0.0000 -102.0699 -51.0419 80.6099 152.3270 -38.8134 -110.0820 -0.0000 0.0000 -14.7530 24.5445 9.8618 4.4722 -7.1250 0.0000 -0.0000 -2.1707 40.7896 0.2255 -0.0000 0.0000 0.0000 38.4243 52.5288 -6.9339 -116.7429 57.1172 -82.9359 0.0000 -0.0000 -38.8977 -6.8453 -22.6681 2.6489 7.1250 -0.0000 -0.0000 22.2682 -51.4051 -3.6664
0.00 0.00 0.00 1.5373 -8.5809 23.0704 0.0000 0.0000 0.0000 5.7377 -16.7103 -81.3585 14.8961 19.3636 74.9236 0.4406 4.4444 -14.9617 0.0600 -1.5804 -4.3474 0.0000 0.0000 0.0000 -7.4021 -15.8737 -46.2612 -16.6436 -19.7277 80.1437 -3.5653 13.3305 -34.2235 -4.3137 12.5665 -37.7668 -4.9725 -2.4803 18.8898 2.4327 -4.1261 -0.9004 6.6825 -1.5598 -11.0875 10.2265 1.7354 -11.6742 -2.0021 0.8482 9.6972 -2.2080 0.6629 4.8877 -0.0000 0.0000 0.0000 -103.2749 -55.0295 82.9240 152.4512 -38.6975 -110.1597 -0.0000 0.0000 -15.0525 25.4831 9.8547 4.6634 -7.1250 0.0000 -0.0000 -1.3404 40.8687 0.1366 -0.0000 0.0000 0.0000 55.6798 40.2030 -2.8269 -151.3596 39.6991 -109.4698 0.0000 -0.0000 -47.9342 -18.4676 -18.6311 6.0901 7.1250 -0.0000 -0.0000 9.5335 -49.3093 -1.0214
0.00 0.00 0.00 4.0694 -34.0986 19.5689 0.0000 0.0000 0.0000 -5.0301 5.2828 -89.1849 22.0049 19.9034 95.8709 1.6724 1.7129 -25.1091 0.1813 -2.7424 -7.5622 0.0000 0.0000 0.0000 -19.5611 -13.5124 -66.9917 -20.6526 -19.9898 91.9084 -3.0919 22.1531 -33.2429 -3.4102 11.3312 -33.4051 -8.0504 -3.1705 23.4310 2.3778 -6.1121 -1.0467 9.4069 -2.1151 -13.2382 8.6945 3.9068 -13.5533 -7.8786 4.5175 7.6339 -3.4985 1.9824 4.8784 0.0000 0.0000 0.0000 -94.4154 -64.3809 68.6354 153.9443 -37.2636 -111.0787 -0.0000 0.0000 -15.4266 26.0500 9.2053 4.4712 -7.1250 0.0000 -0.0000 -0.7826 40.2039 0.0925 0.0000 0.0000 0.0000 69.8248 27.5350 40.0018 -151.9613 39.1518 -109.8519 0.0000 -0.0000 -43.1665 -10.1654 -9.3148 1.6624 7.1250 -0.0000 -0.0000 14.4920 -39.0394 2.1822
0.00 0.00 0.00 5.7535 -24.4848 14.7050 0.0000 0.0000 0.0000 -4.5934 2.7606 -93.0300 24.1542 19.5811 102.2282 1.5010 -2.9455 -22.3956 0.2370 -3.1332 -8.6499 0.0000 0.0000 0.0000 -26.1630 -23.4089 -62.4803 -25.0447 -19.3786 104.8979 -3.2015 28.0307 -35.4665 -4.2988 12.5477 -37.6981 -4.7830 -0.4718 26.9853 2.3586 -1.7896 -0.0349 5.8733 -0.3902 -14.2996 4.4406 -0.7288 -14.7421 -4.9959 -1.2584 9.0833 -2.3941 -0.8133 5.0710 -0.0000 -0.0000 0.0000 -99.6025 -61.2047 75.0108 153.0223 -38.1579 -110.5147 -0.0000 0.0000 -15.6348 25.1001 8.8663 4.1296 -7.1250 0.0000 -0.0000 -1.5857 39.7489 0.2053 -0.0000 -0.0000 0.0000 66.8064 40.9323 31.5999 -139.2139 48.5288 -100.9738 0.0000 -0.0000 -41.9190 -11.5035 -16.9957 3.4044 7.1250 -0.0000 -0.0000 15.5024 -46.6961 -0.6645
0.00 0.00 0.00 6.1255 -21.6915 13.0614 0.0000 0.0000 0.0000 -4.3022 2.0111 -93.9654 24.7423 19.4520 103.9883 1.3971 -4.3210 -21.3479 0.2414 -3.1616 -8.7290 0.0000 0.0000 0.0000 -28.6921 -26.5499 -60.9616 -26.4238 -18.9804 109.0939 -3.2524 28.9794 -36.0055 -4.4420 12.7264 -38.3529 -3.2906 0.5387 28.3418 2.0145 -0.0930 0.4195 4.0405 0.2477 -14.6350 3.5473 -2.0533 -14.8748 -4.0130 -2.9710 9.7213 -2.0916 -1.6116 5.2349 -0.0000 0.0000 0.0000 -99.7638 -60.4557 75.6092 152.9268 -38.2489 -110.4556 -0.0000 0.0000 -16.2088 24.7368 8.4321 3.8650 -7.1250 0.0000 -0.0000 -1.8634 39.2432 0.2644 -0.0000 0.0000 0.0000 62.4748 49.6478 26.4942 -123.4945 55.3045 -88.5497 0.0000 -0.0000 -42.4570 -11.0894 -19.6848 3.7773 7.1250 -0.0000 -0.0000 16.8982 -49.2475 -1.8168
0.00 0.00 0.00 6.5540 -20.4065 11.9633 0.0000 0.0000 0.0000 -4.3778 1.7726 -94.3529 25.0741 19.3712 104.9866 1.3417 -5.1398 -20.8106 0.2357 -3.1248 -8.6265 0.0000 0.0000 0.0000 -30.5759 -28.3528 -60.2264 -27.2181 -18.7020 111.5531 -3.2633 29.5360 -36.2465 -4.4819 12.7755 -38.5337 -2.4849 1.2242 29.0897 1.5899 0.9754 0.7773 2.7120 0.6412 -14.6378 3.2255 -2.7752 -14.7368 -3.5153 -3.9337 9.8551 -1.9621 -2.0556 5.2317 0.0000 -0.0000 0.0000 -99.4814 -60.1462 75.7119 152.8318 -38.3391 -110.3967 -0.0000 0.0000 -15.8537 24.6128 8.3476 3.8050 -7.1250 0.0000 -0.0000 -1.9635 39.1409 0.2836 0.0000 -0.0000 0.0000 57.9111 56.0725 21.9903 -105.6050 59.0596 -73.4716 0.0000 -0.0000 -42.9223 -13.2735 -20.9658 4.8248 7.1250 -0.0000 -0.0000 15.3638 -50.8275 -2.2517
0.00 0.00 0.00 7.0061 -19.5384 10.9389 0.0000 0.0000 0.0000 -4.5267 1.7860 -94.6475 25.3798 19.2915 105.9100 1.2973 -5.8801 -20.3956 0.2314 -3.0964 -8.5471 0.0000 0.0000 0.0000 -32.3999 -29.8880 -59.6984 -27.9024 -18.4316 113.7021 -3.2937 30.0208 -36.5442 -4.5094 12.8091 -38.6579 -1.7098 1.8920 29.7713 1.0517 1.9977 1.1232 1.2898 1.0143 -14.5627 3.1237 -3.4111 -14.4603 -3.1746 -4.8043 9.8326 -1.9029 -2.4583 5.1586 -0.0000 -0.0000 0.0000 -99.0694 -59.8608 75.8601 152.6804 -38.4823 -110.3026 -0.0000 0.0000 -14.8438 24.7299 8.7335 4.0004 -7.1250 0.0000 -0.0000 -1.8966 39.5726 0.2538 -0.0000 -0.0000 0.0000 51.4277 62.4419 15.6649 -81.2489 59.7086 -52.4288 0.0000 -0.0000 -42.8325 -16.4537 -22.1825 6.3625 7.1250 -0.0000 -0.0000 12.7846 -52.5622 -2.4112
